<svg width="65" height="64" viewBox="0 0 65 64" fill="none" xmlns="http://www.w3.org/2000/svg">
<path d="M60.9731 46.6586H45.4731V53.2416H60.9731V46.6586Z" fill="#078DC7"/>
<path d="M29.9722 46.6586H14.4722V53.2416H29.9722V46.6586Z" fill="#078DC7"/>
<path d="M60.9731 33.4916H45.4731V40.0746H60.9731V33.4916Z" fill="#078DC7"/>
<path d="M51.7153 26.9076H36.2153V33.4906H51.7153V26.9076Z" fill="#078DC7"/>
<path d="M16.7781 19.4319L7.55068 21.7271C5.87893 22.15 4.17851 21.127 3.76902 19.4519C3.55497 18.6203 3.70499 17.7773 4.11726 17.092C4.52953 16.4067 5.20409 15.8792 6.04418 15.6703L15.2716 13.3751L16.7781 19.4319Z" fill="#078DC7"/>
<path d="M44.4666 59.2744C35.8845 63.2813 25.8626 62.9727 17.6551 58.4502C17.4143 58.3135 17.1096 58.4043 16.9758 58.6465C16.8425 58.8887 16.9304 59.1924 17.1726 59.3252C21.6985 61.8203 26.7566 63.0752 31.8382 63.0752C36.2849 63.0752 40.7503 62.1133 44.8894 60.1807C45.1399 60.0635 45.2478 59.7666 45.1311 59.5156C45.0139 59.2656 44.7166 59.1563 44.4666 59.2744ZM1.00222 30.2051C1.00564 29.9292 0.784449 29.7026 0.508079 29.6992H0.502219C0.228779 29.6992 0.00563877 29.919 0.00221877 30.1934C-0.0832312 37.3208 2.30202 44.4478 6.71853 50.2617C6.88416 50.4809 7.19834 50.5254 7.41873 50.3574C7.63894 50.1904 7.68191 49.877 7.51443 49.6572C3.2322 44.019 0.919699 37.1113 1.00222 30.2051ZM0.820089 26.1582C1.08506 26.2047 1.34938 26.0241 1.39529 25.7471C1.595 24.5459 1.87332 23.3486 2.22293 22.188C2.30252 21.9238 2.15262 21.645 1.88797 21.5649C1.62283 21.4858 1.34451 21.6357 1.26492 21.8999C0.903589 23.1011 0.615509 24.3398 0.408959 25.583C0.363539 25.8555 0.547629 26.1128 0.820089 26.1582Z" fill="#078DC7"/>
<path d="M60.973 26.4077H59.7153C57.4411 13.1548 45.8774 3.03464 31.9857 3.03464C22.8078 3.03464 14.6663 7.46879 9.52697 14.2886L5.92315 15.185C3.95091 15.6766 2.79321 17.6636 3.28301 19.5708C3.56121 20.7075 4.35888 21.5932 5.38286 22.0268C4.39153 24.899 3.84111 27.9749 3.84111 31.1797C3.84111 39.8517 7.78575 47.6177 13.9725 52.7846V53.2417C13.9725 53.518 14.1961 53.7417 14.4725 53.7417H15.1796C19.8727 57.2465 25.691 59.3242 31.9856 59.3242C38.27 59.3242 44.0662 57.2364 48.7551 53.7417H60.9729C61.2493 53.7417 61.4729 53.518 61.4729 53.2417C61.4729 38.3735 61.4729 42.0126 61.4729 26.9077C61.473 26.6313 61.2493 26.4077 60.973 26.4077ZM36.7156 46.1582V40.5747C41.7793 40.5747 46.2446 40.5747 51.2156 40.5747V46.1582C46.2439 46.1582 41.7795 46.1582 36.7156 46.1582ZM44.973 52.7417H30.4725V47.1582C35.4444 47.1582 39.9089 47.1582 44.973 47.1582V52.7417ZM29.4725 52.7417H15.5223C15.3371 52.6 15.1539 52.4558 14.9725 52.3094V47.1582C19.9442 47.1582 24.4086 47.1582 29.4725 47.1582V52.7417ZM60.473 39.5747C55.4093 39.5747 50.944 39.5747 45.973 39.5747V33.9912C50.9447 33.9912 55.4091 33.9912 60.473 33.9912V39.5747ZM51.2156 32.9912C46.2439 32.9912 41.7795 32.9912 36.7156 32.9912V27.4077H51.2156V32.9912ZM44.973 33.9912V39.5747C39.9091 39.5747 35.4436 39.5747 30.4725 39.5747V33.9912C35.4444 33.9912 39.9089 33.9912 44.973 33.9912ZM35.7156 40.5747V46.1582C30.7437 46.1582 26.2792 46.1582 21.2151 46.1582V40.5747C26.279 40.5747 30.7445 40.5747 35.7156 40.5747ZM52.2156 40.5747H60.473V46.1582H52.2156V40.5747ZM60.473 32.9912H52.2156V27.4077H60.473V32.9912ZM4.25322 19.3276C3.901 17.9584 4.72627 16.5135 6.16435 16.1557L14.9065 13.9809L15.4086 15.9987L12.7366 16.6631C12.4686 16.73 12.3055 17.001 12.3719 17.269C12.4388 17.5371 12.7093 17.6972 12.9778 17.6338L15.6501 16.9693L16.1722 19.0674L7.42802 21.2422C6.03496 21.5952 4.59209 20.7138 4.25322 19.3276ZM4.84111 31.1797C4.84111 28.0636 5.38335 25.0751 6.35405 22.2856C6.72651 22.3305 7.10246 22.3558 7.67119 22.2124L16.8987 19.9175C17.0276 19.8852 17.138 19.8037 17.2064 19.6899C17.2747 19.5761 17.2952 19.4399 17.2635 19.3115L16.6208 16.728L17.7186 16.455C18.5081 16.2583 19.3128 16.7407 19.5096 17.5322C19.8358 18.8449 21.1642 19.6724 22.513 19.3393L24.8999 18.7456L26.4666 25.0449C27.0341 27.324 29.6488 28.234 31.2933 26.7358L42.1673 16.8266C43.9739 15.1792 43.1823 11.9903 40.8128 11.3813L26.5638 7.72068C24.4092 7.169 22.5253 9.19729 23.0916 11.4751L24.6585 17.775L22.2718 18.3686C21.4793 18.5649 20.6775 18.0825 20.4803 17.291C20.1497 15.9643 18.8001 15.1553 17.4774 15.4844L16.3793 15.7574L15.7567 13.2544C15.6898 12.9858 15.4183 12.8232 15.1507 12.8896L11.0897 13.8998C16.071 7.8829 23.582 4.03464 31.9857 4.03464C45.3248 4.03464 56.4398 13.7086 58.7022 26.4077C54.2376 26.4077 40.6399 26.4077 36.2156 26.4077C35.9393 26.4077 35.7156 26.6313 35.7156 26.9077V32.9912H29.9725C29.6961 32.9912 29.4725 33.2148 29.4725 33.4912V39.5747H20.7151C20.4388 39.5747 20.2151 39.7983 20.2151 40.0747V46.1582H14.4725C14.1961 46.1582 13.9725 46.3818 13.9725 46.6582V51.4624C8.3759 46.4866 4.84111 39.2399 4.84111 31.1797ZM29.4681 17.0942C29.4012 16.8257 29.1292 16.6631 28.8621 16.7295L25.6291 17.5336L24.0623 11.2339C23.6794 9.69432 24.8959 8.32355 26.3148 8.68943L40.5638 12.3501C42.1634 12.7606 42.72 14.9694 41.4935 16.0874L30.6194 25.9966C29.5241 26.9958 27.8173 26.3298 27.4373 24.8037L25.8705 18.5043L29.1033 17.7002C29.3714 17.6333 29.5345 17.3623 29.4681 17.0942ZM31.9857 58.3242C26.4122 58.3242 21.2271 56.6338 16.9122 53.7417C24.0438 53.7417 38.8714 53.7417 47.0257 53.7417C42.7155 56.6249 37.5494 58.3242 31.9857 58.3242ZM60.473 52.7417H45.973V47.1582C50.9447 47.1582 55.4091 47.1582 60.473 47.1582V52.7417ZM64.5003 33.6743C64.2239 33.6743 64.0003 33.8979 64.0003 34.1743V48.2832C64.0003 48.5595 64.2239 48.7832 64.5003 48.7832C64.7767 48.7832 65.0003 48.5595 65.0003 48.2832V34.1743C65.0003 33.8979 64.7767 33.6743 64.5003 33.6743ZM64.5003 28.5259C64.2239 28.5259 64.0003 28.7495 64.0003 29.0259V30.8325C64.0003 31.1089 64.2239 31.3325 64.5003 31.3325C64.7767 31.3325 65.0003 31.1089 65.0003 30.8325V29.0259C65.0003 28.7495 64.7767 28.5259 64.5003 28.5259ZM39.4266 0.985325C40.3519 1.21432 41.2791 1.49118 42.1814 1.80905C42.4448 1.90077 42.7283 1.76166 42.8191 1.50339C42.9109 1.24314 42.7742 0.957494 42.5135 0.865694C41.5809 0.537564 40.6229 0.250944 39.6668 0.0146245C39.3987 -0.0512955 39.1277 0.111794 39.0613 0.379854C38.9949 0.647914 39.1585 0.918914 39.4266 0.985325Z" fill="#078DC7"/>
<path d="M45.0503 2.98771C51.1831 5.87834 56.311 10.7636 59.4902 16.7426C59.6216 16.9897 59.9275 17.0772 60.1665 16.9491C60.4101 16.8197 60.5029 16.517 60.373 16.2729C57.0932 10.1049 51.8032 5.06534 45.477 2.08341C45.227 1.96476 44.9292 2.07267 44.8115 2.32218C44.6938 2.57218 44.8008 2.87004 45.0503 2.98771Z" fill="#078DC7"/>
</svg>
