<svg width="609" height="531" viewBox="0 0 609 531" fill="none" xmlns="http://www.w3.org/2000/svg">
<g opacity="0.5">
<path d="M603.204 461.591H449.864V526.716H603.204V461.591Z" fill="white"/>
<path d="M296.513 461.591H143.172V526.716H296.513V461.591Z" fill="white"/>
<path d="M603.204 331.331H449.864V396.456H603.204V331.331Z" fill="white"/>
<path d="M511.616 266.196H358.275V331.321H511.616V266.196Z" fill="white"/>
<path d="M165.983 192.239L74.6961 214.945C58.1575 219.129 41.3354 209.008 37.2843 192.437C35.1667 184.21 36.6509 175.869 40.7294 169.09C44.808 162.311 51.4814 157.092 59.7924 155.025L151.079 132.319L165.983 192.239Z" fill="white"/>
<path d="M439.906 586.399C355.004 626.039 255.857 622.986 174.661 578.245C172.279 576.893 169.265 577.791 167.941 580.187C166.623 582.583 167.492 585.588 169.888 586.901C214.662 611.586 264.702 624 314.973 624C358.965 624 403.141 614.484 444.089 595.365C446.567 594.205 447.635 591.268 446.48 588.785C445.321 586.312 442.379 585.23 439.906 586.399ZM9.9149 298.818C9.94874 296.088 7.76052 293.847 5.0264 293.813H4.96843C2.2633 293.813 0.055784 295.987 0.0219501 298.702C-0.823403 369.213 22.7738 439.72 66.4661 497.237C68.1047 499.405 71.2128 499.845 73.3931 498.184C75.5717 496.532 75.9968 493.43 74.3399 491.257C31.976 435.478 9.09854 367.141 9.9149 298.818ZM8.1131 258.782C10.7344 259.242 13.3493 257.456 13.8035 254.715C15.7792 242.832 18.5327 230.987 21.9913 219.505C22.7787 216.892 21.2958 214.133 18.6776 213.341C16.0546 212.559 13.3012 214.041 12.5138 216.655C8.93916 228.538 6.0892 240.793 4.04581 253.092C3.59647 255.787 5.41767 258.333 8.1131 258.782Z" fill="white"/>
<path d="M603.202 261.25H590.76C568.261 130.139 453.863 30.0216 316.432 30.0216C225.636 30.0216 145.093 73.8883 94.2493 141.356L58.5968 150.225C39.0856 155.088 27.6325 174.745 32.4781 193.613C35.2303 204.858 43.1216 213.621 53.2518 217.91C43.4446 246.324 37.9993 276.755 37.9993 308.459C37.9993 394.251 77.0234 471.08 138.228 522.195V526.717C138.228 529.451 140.441 531.664 143.175 531.664H150.17C196.599 566.337 254.159 586.891 316.432 586.891C378.603 586.891 435.944 566.237 482.331 531.664H603.202C605.936 531.664 608.148 529.451 608.148 526.717C608.148 379.627 608.148 415.629 608.148 266.196C608.148 263.462 605.936 261.25 603.202 261.25ZM363.225 456.641V401.403C413.32 401.403 457.495 401.403 506.673 401.403V456.641C457.488 456.641 413.322 456.641 363.225 456.641ZM444.915 521.771H301.462V466.534C350.649 466.534 394.817 466.534 444.915 466.534V521.771ZM291.569 521.771H153.56C151.728 520.369 149.916 518.943 148.121 517.495V466.534C197.307 466.534 241.473 466.534 291.569 466.534V521.771ZM598.255 391.51C548.161 391.51 503.986 391.51 454.808 391.51V336.273C503.993 336.273 548.159 336.273 598.255 336.273V391.51ZM506.673 326.38C457.488 326.38 413.322 326.38 363.225 326.38V271.143H506.673V326.38ZM444.915 336.273V391.511C394.818 391.511 350.642 391.511 301.462 391.511V336.273C350.649 336.273 394.817 336.273 444.915 336.273ZM353.332 401.403V456.641C304.145 456.641 259.978 456.641 209.88 456.641V401.403C259.976 401.403 304.153 401.403 353.332 401.403ZM516.566 401.403H598.255V456.641H516.566V401.403ZM598.255 326.38H516.566V271.143H598.255V326.38ZM42.0763 191.207C38.5918 177.662 46.7562 163.367 60.983 159.828L147.469 138.313L152.436 158.274L126.002 164.847C123.35 165.509 121.737 168.19 122.394 170.842C123.055 173.494 125.732 175.078 128.388 174.45L154.825 167.877L159.99 188.633L73.4844 210.148C59.703 213.64 45.4287 204.921 42.0763 191.207ZM47.8923 308.459C47.8923 277.632 53.2566 248.067 62.8597 220.471C66.5444 220.914 70.2637 221.164 75.8901 219.746L167.178 197.042C168.453 196.724 169.545 195.917 170.221 194.791C170.897 193.666 171.1 192.318 170.786 191.048L164.428 165.489L175.288 162.789C183.099 160.842 191.06 165.615 193.007 173.445C196.234 186.431 209.375 194.618 222.719 191.323L246.333 185.45L261.832 247.768C267.446 270.315 293.314 279.317 309.582 264.496L417.158 166.465C435.031 150.167 427.2 118.62 403.759 112.595L262.794 76.3804C241.479 70.9226 222.841 90.9884 228.444 113.522L243.945 175.847L220.333 181.72C212.493 183.662 204.561 178.889 202.61 171.059C199.34 157.934 185.988 149.93 172.902 153.186L162.039 155.887L155.879 131.125C155.217 128.468 152.532 126.86 149.884 127.516L109.709 137.51C158.989 77.9852 233.295 39.9145 316.432 39.9145C448.396 39.9145 558.355 135.618 580.738 261.25C536.57 261.25 402.048 261.25 358.279 261.25C355.545 261.25 353.332 263.462 353.332 266.197V326.38H296.516C293.781 326.38 291.569 328.593 291.569 331.327V391.511H204.933C202.199 391.511 199.987 393.723 199.987 396.457V456.641H143.175C140.441 456.641 138.228 458.853 138.228 461.587V509.116C82.8618 459.89 47.8923 388.199 47.8923 308.459ZM291.526 169.112C290.864 166.455 288.173 164.847 285.531 165.504L253.547 173.459L238.047 111.136C234.258 95.9055 246.293 82.3445 260.33 85.9642L401.295 122.179C417.12 126.24 422.626 148.092 410.492 159.152L302.916 257.183C292.08 267.068 275.195 260.479 271.435 245.382L255.935 183.062L287.917 175.107C290.569 174.445 292.183 171.764 291.526 169.112ZM316.432 576.999C261.294 576.999 209.998 560.276 167.311 531.664C237.864 531.664 384.552 531.664 465.222 531.664C422.582 560.188 371.474 576.999 316.432 576.999ZM598.255 521.771H454.808V466.534C503.993 466.534 548.159 466.534 598.255 466.534V521.771ZM638.098 333.138C635.364 333.138 633.151 335.35 633.151 338.085V477.663C633.151 480.397 635.364 482.61 638.098 482.61C640.832 482.61 643.044 480.397 643.044 477.663V338.085C643.044 335.351 640.832 333.138 638.098 333.138ZM638.098 282.205C635.364 282.205 633.151 284.417 633.151 287.151V305.024C633.151 307.759 635.364 309.971 638.098 309.971C640.832 309.971 643.044 307.759 643.044 305.024V287.151C643.044 284.417 640.832 282.205 638.098 282.205ZM390.044 9.74777C399.198 12.0133 408.372 14.7522 417.298 17.8969C419.904 18.8043 422.709 17.4281 423.607 14.873C424.515 12.2984 423.163 9.47245 420.583 8.56427C411.357 5.3181 401.879 2.48258 392.421 0.144679C389.769 -0.507464 387.088 1.10598 386.431 3.75788C385.774 6.40979 387.393 9.09078 390.044 9.74777Z" fill="white"/>
<path d="M445.683 29.5572C506.354 58.1541 557.085 106.484 588.536 165.634C589.836 168.078 592.862 168.944 595.227 167.677C597.637 166.397 598.555 163.402 597.27 160.987C564.823 99.9672 512.489 50.1111 449.905 20.611C447.431 19.4372 444.485 20.5048 443.32 22.9732C442.156 25.4464 443.214 28.3931 445.683 29.5572Z" fill="white"/>
</g>
</svg>
