<svg width="487" height="402" viewBox="0 0 487 402" fill="none" xmlns="http://www.w3.org/2000/svg">
<g opacity="0.5">
<path d="M446.204 331.331H292.864V396.456H446.204V331.331Z" fill="white"/>
<path d="M354.616 266.196H201.275V331.321H354.616V266.196Z" fill="white"/>
<path d="M8.98254 192.239L-82.3039 214.945C-98.8424 219.129 -115.665 209.008 -119.716 192.437C-121.833 184.21 -120.349 175.869 -116.271 169.09C-112.192 162.311 -105.519 157.092 -97.2076 155.025L-5.92119 132.319L8.98254 192.239Z" fill="white"/>
<path d="M282.906 586.399C198.004 626.039 98.8572 622.986 17.6606 578.245C15.2791 576.893 12.2649 577.791 10.9413 580.187C9.62255 582.583 10.492 585.588 12.888 586.901C57.6623 611.586 107.702 624 157.973 624C201.965 624 246.141 614.484 287.089 595.365C289.567 594.205 290.635 591.268 289.48 588.785C288.321 586.312 285.379 585.23 282.906 586.399ZM-147.085 298.818C-147.051 296.088 -149.239 293.847 -151.974 293.813H-152.032C-154.737 293.813 -156.944 295.987 -156.978 298.702C-157.823 369.213 -134.226 439.72 -90.5339 497.237C-88.8953 499.405 -85.7872 499.845 -83.6069 498.184C-81.4283 496.532 -81.0032 493.43 -82.6601 491.257C-125.024 435.478 -147.901 367.141 -147.085 298.818ZM-148.887 258.782C-146.266 259.242 -143.651 257.456 -143.196 254.715C-141.221 242.832 -138.467 230.987 -135.009 219.505C-134.221 216.892 -135.704 214.133 -138.322 213.341C-140.945 212.559 -143.699 214.041 -144.486 216.655C-148.061 228.538 -150.911 240.793 -152.954 253.092C-153.404 255.787 -151.582 258.333 -148.887 258.782Z" fill="white"/>
<path d="M446.202 261.25H433.76C411.261 130.139 296.863 30.0216 159.432 30.0216C68.6357 30.0216 -11.9075 73.8883 -62.7508 141.356L-98.4032 150.225C-117.914 155.088 -129.368 174.745 -124.522 193.613C-121.77 204.858 -113.878 213.621 -103.748 217.91C-113.555 246.324 -119.001 276.755 -119.001 308.459C-119.001 394.251 -79.9766 471.08 -18.7718 522.195V526.717C-18.7718 529.451 -16.5594 531.664 -13.8253 531.664H-6.83008C39.5993 566.337 97.1588 586.891 159.432 586.891C221.603 586.891 278.944 566.237 325.331 531.664H446.202C448.936 531.664 451.148 529.451 451.148 526.717C451.148 379.627 451.148 415.629 451.148 266.196C451.148 263.462 448.936 261.25 446.202 261.25ZM206.225 456.641V401.403C256.32 401.403 300.495 401.403 349.673 401.403V456.641C300.488 456.641 256.322 456.641 206.225 456.641ZM287.915 521.771H144.462V466.534C193.649 466.534 237.817 466.534 287.915 466.534V521.771ZM134.569 521.771H-3.43966C-5.27164 520.369 -7.08374 518.943 -8.87881 517.495V466.534C40.3065 466.534 84.4727 466.534 134.569 466.534V521.771ZM441.255 391.51C391.161 391.51 346.986 391.51 297.808 391.51V336.273C346.993 336.273 391.159 336.273 441.255 336.273V391.51ZM349.673 326.38C300.488 326.38 256.322 326.38 206.225 326.38V271.143H349.673V326.38ZM287.915 336.273V391.511C237.818 391.511 193.642 391.511 144.462 391.511V336.273C193.649 336.273 237.817 336.273 287.915 336.273ZM196.332 401.403V456.641C147.145 456.641 102.978 456.641 52.8797 456.641V401.403C102.976 401.403 147.153 401.403 196.332 401.403ZM359.566 401.403H441.255V456.641H359.566V401.403ZM441.255 326.38H359.566V271.143H441.255V326.38ZM-114.924 191.207C-118.408 177.662 -110.244 163.367 -96.017 159.828L-9.53095 138.313L-4.5639 158.274L-30.9979 164.847C-33.6499 165.509 -35.2632 168.19 -34.6063 170.842C-33.9446 173.494 -31.2684 175.078 -28.6116 174.45L-2.17466 167.877L2.98977 188.633L-83.5156 210.148C-97.2971 213.64 -111.571 204.921 -114.924 191.207ZM-109.108 308.459C-109.108 277.632 -103.743 248.067 -94.1403 220.471C-90.4556 220.914 -86.7363 221.164 -81.1099 219.746L10.1777 197.042C11.453 196.724 12.5447 195.917 13.221 194.791C13.8972 193.666 14.1002 192.318 13.7862 191.048L7.42796 165.489L18.2882 162.789C26.0992 160.842 34.06 165.615 36.0067 173.445C39.2335 186.431 52.3753 194.618 65.7194 191.323L89.3329 185.45L104.832 247.768C110.446 270.315 136.314 279.317 152.582 264.496L260.158 166.465C278.031 150.167 270.2 118.62 246.758 112.595L105.794 76.3804C84.4785 70.9226 65.8408 90.9884 71.4436 113.522L86.9447 175.847L63.333 181.72C55.493 183.662 47.5613 178.889 45.6098 171.059C42.3395 157.934 28.9879 149.93 15.902 153.186L5.03928 155.887L-1.12085 131.125C-1.78259 128.468 -4.46844 126.86 -7.11559 127.516L-47.2907 137.51C1.9887 77.9852 76.2952 39.9145 159.432 39.9145C291.396 39.9145 401.355 135.618 423.737 261.25C379.569 261.25 245.048 261.25 201.279 261.25C198.545 261.25 196.332 263.462 196.332 266.197V326.38H139.515C136.781 326.38 134.569 328.593 134.569 331.327V391.511H47.9333C45.1991 391.511 42.9868 393.723 42.9868 396.457V456.641H-13.8253C-16.5594 456.641 -18.7718 458.853 -18.7718 461.587V509.116C-74.1383 459.89 -109.108 388.199 -109.108 308.459ZM134.526 169.112C133.864 166.455 131.173 164.847 128.531 165.504L96.5472 173.459L81.0466 111.136C77.258 95.9055 89.2928 82.3445 103.33 85.9642L244.295 122.179C260.12 126.24 265.626 148.092 253.492 159.152L145.916 257.183C135.08 267.068 118.195 260.479 114.435 245.382L98.9354 183.062L130.917 175.107C133.569 174.445 135.182 171.764 134.526 169.112ZM159.432 576.999C104.294 576.999 52.9981 560.276 10.3106 531.664C80.8635 531.664 227.552 531.664 308.222 531.664C265.582 560.188 214.474 576.999 159.432 576.999ZM441.255 521.771H297.808V466.534C346.993 466.534 391.159 466.534 441.255 466.534V521.771ZM481.098 333.138C478.364 333.138 476.151 335.35 476.151 338.085V477.663C476.151 480.397 478.364 482.61 481.098 482.61C483.832 482.61 486.044 480.397 486.044 477.663V338.085C486.044 335.351 483.832 333.138 481.098 333.138ZM481.098 282.205C478.364 282.205 476.151 284.417 476.151 287.151V305.024C476.151 307.759 478.364 309.971 481.098 309.971C483.832 309.971 486.044 307.759 486.044 305.024V287.151C486.044 284.417 483.832 282.205 481.098 282.205ZM233.044 9.74777C242.198 12.0133 251.372 14.7522 260.298 17.8969C262.904 18.8043 265.709 17.4281 266.607 14.873C267.515 12.2984 266.163 9.47245 263.583 8.56427C254.357 5.3181 244.879 2.48258 235.421 0.144679C232.769 -0.507464 230.088 1.10598 229.431 3.75788C228.774 6.40979 230.393 9.09078 233.044 9.74777Z" fill="white"/>
<path d="M288.683 29.5571C349.354 58.154 400.085 106.484 431.536 165.633C432.836 168.078 435.862 168.944 438.227 167.677C440.637 166.397 441.555 163.402 440.27 160.986C407.823 99.9671 355.489 50.111 292.905 20.6109C290.431 19.4371 287.485 20.5047 286.32 22.9731C285.156 25.4463 286.214 28.393 288.683 29.5571Z" fill="white"/>
</g>
</svg>
