<svg width="17" height="13" viewBox="0 0 17 13" fill="none" xmlns="http://www.w3.org/2000/svg">
<path d="M16.6779 4.21016C16.8074 4.10723 17 4.20352 17 4.36621V11.1562C17 12.0361 16.2861 12.75 15.4062 12.75H1.59375C0.713867 12.75 0 12.0361 0 11.1562V4.36953C0 4.20352 0.189258 4.11055 0.32207 4.21348C1.06582 4.79121 2.05195 5.525 5.43867 7.98535C6.13926 8.49668 7.32129 9.57246 8.5 9.56582C9.68535 9.57578 10.8906 8.47676 11.5646 7.98535C14.9514 5.525 15.9342 4.78789 16.6779 4.21016ZM8.5 8.5C9.27031 8.51328 10.3793 7.53047 10.9371 7.12539C15.3432 3.92793 15.6785 3.64902 16.6945 2.85215C16.8871 2.70273 17 2.47031 17 2.22461V1.59375C17 0.713867 16.2861 0 15.4062 0H1.59375C0.713867 0 0 0.713867 0 1.59375V2.22461C0 2.47031 0.112891 2.69941 0.305469 2.85215C1.32148 3.6457 1.65684 3.92793 6.06289 7.12539C6.6207 7.53047 7.72969 8.51328 8.5 8.5Z" fill="#078DC7"/>
</svg>
