<svg width="444" height="64" viewBox="0 0 444 64" fill="none" xmlns="http://www.w3.org/2000/svg">
<line x1="250" y1="58.5" x2="443" y2="58.5" stroke="black"/>
<path d="M83.64 50.64H90.38V53.16H83.64V50.64ZM83.88 56.4H91.5V59H80.66V45H91.24V47.6H83.88V56.4ZM104.678 59.24C103.558 59.24 102.485 59.0933 101.458 58.8C100.431 58.4933 99.6046 58.1 98.978 57.62L100.078 55.18C100.678 55.6067 101.385 55.96 102.198 56.24C103.025 56.5067 103.858 56.64 104.698 56.64C105.338 56.64 105.851 56.58 106.238 56.46C106.638 56.3267 106.931 56.1467 107.118 55.92C107.305 55.6933 107.398 55.4333 107.398 55.14C107.398 54.7667 107.251 54.4733 106.958 54.26C106.665 54.0333 106.278 53.8533 105.798 53.72C105.318 53.5733 104.785 53.44 104.198 53.32C103.625 53.1867 103.045 53.0267 102.458 52.84C101.885 52.6533 101.358 52.4133 100.878 52.12C100.398 51.8267 100.005 51.44 99.698 50.96C99.4046 50.48 99.258 49.8667 99.258 49.12C99.258 48.32 99.4713 47.5933 99.898 46.94C100.338 46.2733 100.991 45.7467 101.858 45.36C102.738 44.96 103.838 44.76 105.158 44.76C106.038 44.76 106.905 44.8667 107.758 45.08C108.611 45.28 109.365 45.5867 110.018 46L109.018 48.46C108.365 48.0867 107.711 47.8133 107.058 47.64C106.405 47.4533 105.765 47.36 105.138 47.36C104.511 47.36 103.998 47.4333 103.598 47.58C103.198 47.7267 102.911 47.92 102.738 48.16C102.565 48.3867 102.478 48.6533 102.478 48.96C102.478 49.32 102.625 49.6133 102.918 49.84C103.211 50.0533 103.598 50.2267 104.078 50.36C104.558 50.4933 105.085 50.6267 105.658 50.76C106.245 50.8933 106.825 51.0467 107.398 51.22C107.985 51.3933 108.518 51.6267 108.998 51.92C109.478 52.2133 109.865 52.6 110.158 53.08C110.465 53.56 110.618 54.1667 110.618 54.9C110.618 55.6867 110.398 56.4067 109.958 57.06C109.518 57.7133 108.858 58.24 107.978 58.64C107.111 59.04 106.011 59.24 104.678 59.24ZM123.432 59.24C122.312 59.24 121.239 59.0933 120.212 58.8C119.185 58.4933 118.359 58.1 117.732 57.62L118.832 55.18C119.432 55.6067 120.139 55.96 120.952 56.24C121.779 56.5067 122.612 56.64 123.452 56.64C124.092 56.64 124.605 56.58 124.992 56.46C125.392 56.3267 125.685 56.1467 125.872 55.92C126.059 55.6933 126.152 55.4333 126.152 55.14C126.152 54.7667 126.005 54.4733 125.712 54.26C125.419 54.0333 125.032 53.8533 124.552 53.72C124.072 53.5733 123.539 53.44 122.952 53.32C122.379 53.1867 121.799 53.0267 121.212 52.84C120.639 52.6533 120.112 52.4133 119.632 52.12C119.152 51.8267 118.759 51.44 118.452 50.96C118.159 50.48 118.012 49.8667 118.012 49.12C118.012 48.32 118.225 47.5933 118.652 46.94C119.092 46.2733 119.745 45.7467 120.612 45.36C121.492 44.96 122.592 44.76 123.912 44.76C124.792 44.76 125.659 44.8667 126.512 45.08C127.365 45.28 128.119 45.5867 128.772 46L127.772 48.46C127.119 48.0867 126.465 47.8133 125.812 47.64C125.159 47.4533 124.519 47.36 123.892 47.36C123.265 47.36 122.752 47.4333 122.352 47.58C121.952 47.7267 121.665 47.92 121.492 48.16C121.319 48.3867 121.232 48.6533 121.232 48.96C121.232 49.32 121.379 49.6133 121.672 49.84C121.965 50.0533 122.352 50.2267 122.832 50.36C123.312 50.4933 123.839 50.6267 124.412 50.76C124.999 50.8933 125.579 51.0467 126.152 51.22C126.739 51.3933 127.272 51.6267 127.752 51.92C128.232 52.2133 128.619 52.6 128.912 53.08C129.219 53.56 129.372 54.1667 129.372 54.9C129.372 55.6867 129.152 56.4067 128.712 57.06C128.272 57.7133 127.612 58.24 126.732 58.64C125.865 59.04 124.765 59.24 123.432 59.24ZM140.566 50.64H147.306V53.16H140.566V50.64ZM140.806 56.4H148.426V59H137.586V45H148.166V47.6H140.806V56.4ZM155.267 59L161.287 50.7V53.06L155.527 45H159.207L163.187 50.62L161.647 50.64L165.567 45H169.087L163.367 52.92V50.6L169.427 59H165.687L161.567 53.06H163.047L158.987 59H155.267ZM188.808 59V45H192.048V56.36H199.068V59H188.808ZM208.47 59V47.64H203.99V45H216.19V47.64H211.71V59H208.47ZM223.933 59V45H230.293C231.813 45 233.153 45.2933 234.313 45.88C235.473 46.4533 236.38 47.26 237.033 48.3C237.687 49.34 238.013 50.5733 238.013 52C238.013 53.4133 237.687 54.6467 237.033 55.7C236.38 56.74 235.473 57.5533 234.313 58.14C233.153 58.7133 231.813 59 230.293 59H223.933ZM227.173 56.34H230.133C231.067 56.34 231.873 56.1667 232.553 55.82C233.247 55.46 233.78 54.9533 234.153 54.3C234.54 53.6467 234.733 52.88 234.733 52C234.733 51.1067 234.54 50.34 234.153 49.7C233.78 49.0467 233.247 48.5467 232.553 48.2C231.873 47.84 231.067 47.66 230.133 47.66H227.173V56.34Z" fill="black"/>
<path d="M80.32 36V8H94C97.52 8 100.16 8.66666 101.92 10C103.707 11.3333 104.6 13.0933 104.6 15.28C104.6 16.7467 104.24 18.0267 103.52 19.12C102.8 20.1867 101.813 21.0133 100.56 21.6C99.3067 22.1867 97.8667 22.48 96.24 22.48L97 20.84C98.76 20.84 100.32 21.1333 101.68 21.72C103.04 22.28 104.093 23.12 104.84 24.24C105.613 25.36 106 26.7333 106 28.36C106 30.76 105.053 32.64 103.16 34C101.267 35.3333 98.48 36 94.8 36H80.32ZM86.76 31.12H94.32C96 31.12 97.2667 30.8533 98.12 30.32C99 29.76 99.44 28.88 99.44 27.68C99.44 26.5067 99 25.64 98.12 25.08C97.2667 24.4933 96 24.2 94.32 24.2H86.28V19.48H93.2C94.7733 19.48 95.9733 19.2133 96.8 18.68C97.6533 18.12 98.08 17.28 98.08 16.16C98.08 15.0667 97.6533 14.2533 96.8 13.72C95.9733 13.16 94.7733 12.88 93.2 12.88H86.76V31.12ZM110.906 36V8H124.586C128.106 8 130.746 8.66666 132.506 10C134.293 11.3333 135.186 13.0933 135.186 15.28C135.186 16.7467 134.826 18.0267 134.106 19.12C133.386 20.1867 132.399 21.0133 131.146 21.6C129.893 22.1867 128.453 22.48 126.826 22.48L127.586 20.84C129.346 20.84 130.906 21.1333 132.266 21.72C133.626 22.28 134.679 23.12 135.426 24.24C136.199 25.36 136.586 26.7333 136.586 28.36C136.586 30.76 135.639 32.64 133.746 34C131.853 35.3333 129.066 36 125.386 36H110.906ZM117.346 31.12H124.906C126.586 31.12 127.853 30.8533 128.706 30.32C129.586 29.76 130.026 28.88 130.026 27.68C130.026 26.5067 129.586 25.64 128.706 25.08C127.853 24.4933 126.586 24.2 124.906 24.2H116.866V19.48H123.786C125.359 19.48 126.559 19.2133 127.386 18.68C128.239 18.12 128.666 17.28 128.666 16.16C128.666 15.0667 128.239 14.2533 127.386 13.72C126.559 13.16 125.359 12.88 123.786 12.88H117.346V31.12ZM146.901 36V13.28H137.941V8H162.341V13.28H153.381V36H146.901Z" fill="black"/>
<path d="M177.156 36V8H190.836C194.356 8 196.996 8.66666 198.756 10C200.543 11.3333 201.436 13.0933 201.436 15.28C201.436 16.7467 201.076 18.0267 200.356 19.12C199.636 20.1867 198.649 21.0133 197.396 21.6C196.143 22.1867 194.703 22.48 193.076 22.48L193.836 20.84C195.596 20.84 197.156 21.1333 198.516 21.72C199.876 22.28 200.929 23.12 201.676 24.24C202.449 25.36 202.836 26.7333 202.836 28.36C202.836 30.76 201.889 32.64 199.996 34C198.103 35.3333 195.316 36 191.636 36H177.156ZM183.596 31.12H191.156C192.836 31.12 194.103 30.8533 194.956 30.32C195.836 29.76 196.276 28.88 196.276 27.68C196.276 26.5067 195.836 25.64 194.956 25.08C194.103 24.4933 192.836 24.2 191.156 24.2H183.116V19.48H190.036C191.609 19.48 192.809 19.2133 193.636 18.68C194.489 18.12 194.916 17.28 194.916 16.16C194.916 15.0667 194.489 14.2533 193.636 13.72C192.809 13.16 191.609 12.88 190.036 12.88H183.596V31.12ZM207.742 36V8H219.862C222.369 8 224.529 8.41333 226.342 9.24C228.155 10.04 229.555 11.2 230.542 12.72C231.529 14.24 232.022 16.0533 232.022 18.16C232.022 20.24 231.529 22.04 230.542 23.56C229.555 25.0533 228.155 26.2 226.342 27C224.529 27.8 222.369 28.2 219.862 28.2H211.342L214.222 25.36V36H207.742ZM225.542 36L218.542 25.84H225.462L232.542 36H225.542ZM214.222 26.08L211.342 23.04H219.502C221.502 23.04 222.995 22.6133 223.982 21.76C224.969 20.88 225.462 19.68 225.462 18.16C225.462 16.6133 224.969 15.4133 223.982 14.56C222.995 13.7067 221.502 13.28 219.502 13.28H211.342L214.222 10.2V26.08ZM237.156 36V8H243.636V36H237.156ZM263.681 36.48C261.521 36.48 259.508 36.1333 257.641 35.44C255.801 34.72 254.201 33.7067 252.841 32.4C251.481 31.0933 250.414 29.56 249.641 27.8C248.894 26.04 248.521 24.1067 248.521 22C248.521 19.8933 248.894 17.96 249.641 16.2C250.414 14.44 251.481 12.9067 252.841 11.6C254.228 10.2933 255.841 9.29333 257.681 8.6C259.521 7.88 261.534 7.52 263.721 7.52C266.148 7.52 268.334 7.94667 270.281 8.8C272.254 9.62667 273.908 10.8533 275.241 12.48L271.081 16.32C270.121 15.2267 269.054 14.4133 267.881 13.88C266.708 13.32 265.428 13.04 264.041 13.04C262.734 13.04 261.534 13.2533 260.441 13.68C259.348 14.1067 258.401 14.72 257.601 15.52C256.801 16.32 256.174 17.2667 255.721 18.36C255.294 19.4533 255.081 20.6667 255.081 22C255.081 23.3333 255.294 24.5467 255.721 25.64C256.174 26.7333 256.801 27.68 257.601 28.48C258.401 29.28 259.348 29.8933 260.441 30.32C261.534 30.7467 262.734 30.96 264.041 30.96C265.428 30.96 266.708 30.6933 267.881 30.16C269.054 29.6 270.121 28.76 271.081 27.64L275.241 31.48C273.908 33.1067 272.254 34.3467 270.281 35.2C268.334 36.0533 266.134 36.48 263.681 36.48ZM285.417 29.6L285.057 22.12L298.457 8H305.657L293.577 21L289.977 24.84L285.417 29.6ZM279.617 36V8H286.057V36H279.617ZM298.777 36L288.817 23.8L293.057 19.2L306.337 36H298.777ZM314.345 36L305.185 8H311.905L319.865 32.8H316.505L324.825 8H330.825L338.825 32.8H335.585L343.745 8H349.945L340.785 36H333.825L326.745 14.24H328.585L321.305 36H314.345ZM366.85 36.48C364.636 36.48 362.583 36.12 360.69 35.4C358.823 34.68 357.196 33.6667 355.81 32.36C354.45 31.0533 353.383 29.52 352.61 27.76C351.863 26 351.49 24.08 351.49 22C351.49 19.92 351.863 18 352.61 16.24C353.383 14.48 354.463 12.9467 355.85 11.64C357.236 10.3333 358.863 9.32 360.73 8.6C362.596 7.88 364.623 7.52 366.81 7.52C369.023 7.52 371.05 7.88 372.89 8.6C374.756 9.32 376.37 10.3333 377.73 11.64C379.116 12.9467 380.196 14.48 380.97 16.24C381.743 17.9733 382.13 19.8933 382.13 22C382.13 24.08 381.743 26.0133 380.97 27.8C380.196 29.56 379.116 31.0933 377.73 32.4C376.37 33.68 374.756 34.68 372.89 35.4C371.05 36.12 369.036 36.48 366.85 36.48ZM366.81 30.96C368.063 30.96 369.21 30.7467 370.25 30.32C371.316 29.8933 372.25 29.28 373.05 28.48C373.85 27.68 374.463 26.7333 374.89 25.64C375.343 24.5467 375.57 23.3333 375.57 22C375.57 20.6667 375.343 19.4533 374.89 18.36C374.463 17.2667 373.85 16.32 373.05 15.52C372.276 14.72 371.356 14.1067 370.29 13.68C369.223 13.2533 368.063 13.04 366.81 13.04C365.556 13.04 364.396 13.2533 363.33 13.68C362.29 14.1067 361.37 14.72 360.57 15.52C359.77 16.32 359.143 17.2667 358.69 18.36C358.263 19.4533 358.05 20.6667 358.05 22C358.05 23.3067 358.263 24.52 358.69 25.64C359.143 26.7333 359.756 27.68 360.53 28.48C361.33 29.28 362.263 29.8933 363.33 30.32C364.396 30.7467 365.556 30.96 366.81 30.96ZM387 36V8H399.12C401.626 8 403.786 8.41333 405.6 9.24C407.413 10.04 408.813 11.2 409.8 12.72C410.786 14.24 411.28 16.0533 411.28 18.16C411.28 20.24 410.786 22.04 409.8 23.56C408.813 25.0533 407.413 26.2 405.6 27C403.786 27.8 401.626 28.2 399.12 28.2H390.6L393.48 25.36V36H387ZM404.8 36L397.8 25.84H404.72L411.8 36H404.8ZM393.48 26.08L390.6 23.04H398.76C400.76 23.04 402.253 22.6133 403.24 21.76C404.226 20.88 404.72 19.68 404.72 18.16C404.72 16.6133 404.226 15.4133 403.24 14.56C402.253 13.7067 400.76 13.28 398.76 13.28H390.6L393.48 10.2V26.08ZM422.214 29.6L421.854 22.12L435.254 8H442.454L430.374 21L426.774 24.84L422.214 29.6ZM416.414 36V8H422.854V36H416.414ZM435.574 36L425.614 23.8L429.854 19.2L443.134 36H435.574Z" fill="white"/>
<path d="M60.9731 46.6587H45.4731V53.2417H60.9731V46.6587Z" fill="white"/>
<path d="M29.9722 46.6587H14.4722V53.2417H29.9722V46.6587Z" fill="white"/>
<path d="M60.9731 33.4917H45.4731V40.0747H60.9731V33.4917Z" fill="white"/>
<path d="M51.7151 26.9077H36.2151V33.4907H51.7151V26.9077Z" fill="white"/>
<path d="M16.7779 19.4318L7.55044 21.7269C5.87869 22.1499 4.17827 21.1269 3.76878 19.4518C3.55473 18.6202 3.70475 17.7771 4.11702 17.0919C4.52929 16.4066 5.20385 15.8791 6.04394 15.6701L15.2714 13.375L16.7779 19.4318Z" fill="white"/>
<path d="M44.4666 59.2745C35.8845 63.2814 25.8626 62.9728 17.6551 58.4503C17.4143 58.3136 17.1096 58.4044 16.9758 58.6466C16.8425 58.8888 16.9304 59.1925 17.1726 59.3253C21.6985 61.8204 26.7566 63.0753 31.8382 63.0753C36.2849 63.0753 40.7503 62.1134 44.8894 60.1808C45.1399 60.0636 45.2478 59.7667 45.1311 59.5157C45.0139 59.2657 44.7166 59.1564 44.4666 59.2745ZM1.00222 30.2052C1.00564 29.9293 0.784449 29.7028 0.508079 29.6993H0.502219C0.228779 29.6993 0.00563877 29.9191 0.00221877 30.1935C-0.0832312 37.3209 2.30202 44.4479 6.71853 50.2619C6.88416 50.481 7.19834 50.5255 7.41873 50.3575C7.63894 50.1906 7.68191 49.8771 7.51443 49.6574C3.2322 44.0192 0.919699 37.1115 1.00222 30.2052ZM0.820089 26.1583C1.08506 26.2048 1.34938 26.0243 1.39529 25.7472C1.595 24.546 1.87332 23.3488 2.22293 22.1881C2.30252 21.924 2.15262 21.6452 1.88797 21.5651C1.62283 21.486 1.34451 21.6359 1.26492 21.9C0.903589 23.1012 0.615509 24.34 0.408959 25.5831C0.363539 25.8556 0.547629 26.1129 0.820089 26.1583Z" fill="white"/>
<path d="M60.973 26.4077H59.7153C57.4411 13.1548 45.8774 3.03464 31.9857 3.03464C22.8078 3.03464 14.6663 7.46879 9.52697 14.2886L5.92315 15.185C3.95091 15.6766 2.79321 17.6636 3.28301 19.5708C3.56121 20.7075 4.35888 21.5932 5.38286 22.0268C4.39153 24.899 3.84111 27.9749 3.84111 31.1797C3.84111 39.8517 7.78575 47.6177 13.9725 52.7846V53.2417C13.9725 53.518 14.1961 53.7417 14.4725 53.7417H15.1796C19.8727 57.2465 25.691 59.3242 31.9856 59.3242C38.27 59.3242 44.0662 57.2364 48.7551 53.7417H60.9729C61.2493 53.7417 61.4729 53.518 61.4729 53.2417C61.4729 38.3735 61.4729 42.0126 61.4729 26.9077C61.473 26.6313 61.2493 26.4077 60.973 26.4077ZM36.7156 46.1582V40.5747C41.7793 40.5747 46.2446 40.5747 51.2156 40.5747V46.1582C46.2439 46.1582 41.7795 46.1582 36.7156 46.1582ZM44.973 52.7417H30.4725V47.1582C35.4444 47.1582 39.9089 47.1582 44.973 47.1582V52.7417ZM29.4725 52.7417H15.5223C15.3371 52.6 15.1539 52.4558 14.9725 52.3094V47.1582C19.9442 47.1582 24.4086 47.1582 29.4725 47.1582V52.7417ZM60.473 39.5747C55.4093 39.5747 50.944 39.5747 45.973 39.5747V33.9912C50.9447 33.9912 55.4091 33.9912 60.473 33.9912V39.5747ZM51.2156 32.9912C46.2439 32.9912 41.7795 32.9912 36.7156 32.9912V27.4077H51.2156V32.9912ZM44.973 33.9912V39.5747C39.9091 39.5747 35.4436 39.5747 30.4725 39.5747V33.9912C35.4444 33.9912 39.9089 33.9912 44.973 33.9912ZM35.7156 40.5747V46.1582C30.7437 46.1582 26.2792 46.1582 21.2151 46.1582V40.5747C26.279 40.5747 30.7445 40.5747 35.7156 40.5747ZM52.2156 40.5747H60.473V46.1582H52.2156V40.5747ZM60.473 32.9912H52.2156V27.4077H60.473V32.9912ZM4.25322 19.3276C3.901 17.9584 4.72627 16.5135 6.16435 16.1557L14.9065 13.9809L15.4086 15.9987L12.7366 16.6631C12.4686 16.73 12.3055 17.001 12.3719 17.269C12.4388 17.5371 12.7093 17.6972 12.9778 17.6338L15.6501 16.9693L16.1722 19.0674L7.42802 21.2422C6.03496 21.5952 4.59209 20.7138 4.25322 19.3276ZM4.84111 31.1797C4.84111 28.0636 5.38335 25.0751 6.35405 22.2856C6.72651 22.3305 7.10246 22.3558 7.67119 22.2124L16.8987 19.9175C17.0276 19.8852 17.138 19.8037 17.2064 19.6899C17.2747 19.5761 17.2952 19.4399 17.2635 19.3115L16.6208 16.728L17.7186 16.455C18.5081 16.2583 19.3128 16.7407 19.5096 17.5322C19.8358 18.8449 21.1642 19.6724 22.513 19.3393L24.8999 18.7456L26.4666 25.0449C27.0341 27.324 29.6488 28.234 31.2933 26.7358L42.1673 16.8266C43.9739 15.1792 43.1823 11.9903 40.8128 11.3813L26.5638 7.72068C24.4092 7.169 22.5253 9.19729 23.0916 11.4751L24.6585 17.775L22.2718 18.3686C21.4793 18.5649 20.6775 18.0825 20.4803 17.291C20.1497 15.9643 18.8001 15.1553 17.4774 15.4844L16.3793 15.7574L15.7567 13.2544C15.6898 12.9858 15.4183 12.8232 15.1507 12.8896L11.0897 13.8998C16.071 7.8829 23.582 4.03464 31.9857 4.03464C45.3248 4.03464 56.4398 13.7086 58.7022 26.4077C54.2376 26.4077 40.6399 26.4077 36.2156 26.4077C35.9393 26.4077 35.7156 26.6313 35.7156 26.9077V32.9912H29.9725C29.6961 32.9912 29.4725 33.2148 29.4725 33.4912V39.5747H20.7151C20.4388 39.5747 20.2151 39.7983 20.2151 40.0747V46.1582H14.4725C14.1961 46.1582 13.9725 46.3818 13.9725 46.6582V51.4624C8.3759 46.4866 4.84111 39.2399 4.84111 31.1797ZM29.4681 17.0942C29.4012 16.8257 29.1292 16.6631 28.8621 16.7295L25.6291 17.5336L24.0623 11.2339C23.6794 9.69432 24.8959 8.32355 26.3148 8.68943L40.5638 12.3501C42.1634 12.7606 42.72 14.9694 41.4935 16.0874L30.6194 25.9966C29.5241 26.9958 27.8173 26.3298 27.4373 24.8037L25.8705 18.5043L29.1033 17.7002C29.3714 17.6333 29.5345 17.3623 29.4681 17.0942ZM31.9857 58.3242C26.4122 58.3242 21.2271 56.6338 16.9122 53.7417C24.0438 53.7417 38.8714 53.7417 47.0257 53.7417C42.7155 56.6249 37.5494 58.3242 31.9857 58.3242ZM60.473 52.7417H45.973V47.1582C50.9447 47.1582 55.4091 47.1582 60.473 47.1582V52.7417ZM64.5003 33.6743C64.2239 33.6743 64.0003 33.8979 64.0003 34.1743V48.2832C64.0003 48.5595 64.2239 48.7832 64.5003 48.7832C64.7767 48.7832 65.0003 48.5595 65.0003 48.2832V34.1743C65.0003 33.8979 64.7767 33.6743 64.5003 33.6743ZM64.5003 28.5259C64.2239 28.5259 64.0003 28.7495 64.0003 29.0259V30.8325C64.0003 31.1089 64.2239 31.3325 64.5003 31.3325C64.7767 31.3325 65.0003 31.1089 65.0003 30.8325V29.0259C65.0003 28.7495 64.7767 28.5259 64.5003 28.5259ZM39.4266 0.985325C40.3519 1.21432 41.2791 1.49118 42.1814 1.80905C42.4448 1.90077 42.7283 1.76166 42.8191 1.50339C42.9109 1.24314 42.7742 0.957494 42.5135 0.865694C41.5809 0.537564 40.6229 0.250944 39.6668 0.0146245C39.3987 -0.0512955 39.1277 0.111794 39.0613 0.379854C38.9949 0.647914 39.1585 0.918915 39.4266 0.985325Z" fill="white"/>
<path d="M45.0505 2.98771C51.1833 5.87834 56.3113 10.7636 59.4905 16.7426C59.6219 16.9897 59.9277 17.0772 60.1667 16.9491C60.4104 16.8197 60.5032 16.517 60.3733 16.2729C57.0935 10.1049 51.8035 5.06534 45.4773 2.08341C45.2273 1.96476 44.9294 2.07267 44.8117 2.32218C44.6941 2.57218 44.801 2.87004 45.0505 2.98771Z" fill="white"/>
</svg>
