<svg width="15" height="15" viewBox="0 0 15 15" fill="none" xmlns="http://www.w3.org/2000/svg">
<path d="M7.286 3.5213C9.33063 3.5213 11.0183 5.20893 11.0183 7.25355C11.0183 9.33063 9.33063 10.9858 7.286 10.9858C5.20892 10.9858 3.55375 9.33063 3.55375 7.25355C3.55375 5.20893 5.20892 3.5213 7.286 3.5213ZM7.286 9.68763C8.61663 9.68763 9.68763 8.61663 9.68763 7.25355C9.68763 5.92292 8.61663 4.85193 7.286 4.85193C5.92292 4.85193 4.85192 5.92292 4.85192 7.25355C4.85192 8.61663 5.95537 9.68763 7.286 9.68763ZM12.0243 3.39148C12.0243 2.90467 11.6349 2.51521 11.1481 2.51521C10.6612 2.51521 10.2718 2.90467 10.2718 3.39148C10.2718 3.8783 10.6612 4.26775 11.1481 4.26775C11.6349 4.26775 12.0243 3.8783 12.0243 3.39148ZM14.4909 4.26775C14.5558 5.46856 14.5558 9.07099 14.4909 10.2718C14.426 11.4402 14.1663 12.4462 13.3225 13.3225C12.4787 14.1663 11.4402 14.426 10.2718 14.4909C9.07098 14.5558 5.46856 14.5558 4.26775 14.4909C3.0994 14.426 2.0933 14.1663 1.21703 13.3225C0.373218 12.4462 0.11359 11.4402 0.0486815 10.2718C-0.0162272 9.07099 -0.0162272 5.46856 0.0486815 4.26775C0.11359 3.09939 0.373218 2.06085 1.21703 1.21704C2.0933 0.373225 3.0994 0.11359 4.26775 0.0486815C5.46856 -0.0162272 9.07098 -0.0162272 10.2718 0.0486815C11.4402 0.11359 12.4787 0.373225 13.3225 1.21704C14.1663 2.06085 14.426 3.09939 14.4909 4.26775ZM12.9331 11.5375C13.3225 10.5963 13.2251 8.32454 13.2251 7.25355C13.2251 6.21501 13.3225 3.9432 12.9331 2.96957C12.6734 2.35294 12.1866 1.83367 11.57 1.60649C10.5964 1.21704 8.32454 1.3144 7.286 1.3144C6.21501 1.3144 3.9432 1.21704 3.00202 1.60649C2.35293 1.86613 1.86612 2.35294 1.60648 2.96957C1.21703 3.9432 1.3144 6.21501 1.3144 7.25355C1.3144 8.32454 1.21703 10.5963 1.60648 11.5375C1.86612 12.1866 2.35293 12.6734 3.00202 12.9331C3.9432 13.3225 6.21501 13.2252 7.286 13.2252C8.32454 13.2252 10.5964 13.3225 11.57 12.9331C12.1866 12.6734 12.7059 12.1866 12.9331 11.5375Z" fill="black"/>
</svg>
